<svg xmlns="http://www.w3.org/2000/svg" width="205" height="82" viewBox="0 0 205 82" fill="none">
  <g clip-path="url(#clip0_1_254)">
    <path d="M141.028 79.6839V73.9755H140.11V72.6191H142.385V79.6839H141.028Z" fill="white"/>
    <path d="M147.645 79.684H144.149V78.331H147.596C147.74 78.331 147.948 78.1137 147.948 77.9787V74.3245C147.948 74.1929 147.744 73.9723 147.596 73.9723H145.502V75.6183H146.601V76.8989H144.145V72.616H147.642C148.415 72.616 149.298 73.5114 149.298 74.2752V78.0248C149.298 78.7885 148.415 79.6807 147.642 79.6807" fill="white"/>
    <path d="M151.733 76.0297V73.9722H150.814V72.6191H153.086V76.0297H151.733Z" fill="white"/>
    <path d="M160.251 75.6184H154.661V76.9023H160.251V75.6184Z" fill="white"/>
    <path d="M161.942 79.6839V78.3275H165.28V73.9755H161.942V72.6191H166.636V78.3275H167.265V79.6839H161.942Z" fill="white"/>
    <path d="M169.515 76.0297V73.9722H168.597V72.6191H170.871V76.0297H169.515Z" fill="white"/>
    <path d="M172.443 79.6839V78.3275H175.781V73.9755H172.443V72.6191H177.134V78.3275H177.763V79.6839H172.443Z" fill="white"/>
    <path d="M183.477 79.684L180.754 75.1969V79.684H179.388V75.4372C179.388 75.1344 179.484 74.9171 179.727 74.7229L180.211 74.3476L179.158 72.616H180.718L183.464 77.1656V72.616H184.83V76.5598C184.83 77.0569 184.662 77.261 184.297 77.5047L183.885 77.7812L185.021 79.6807H183.474L183.477 79.684Z" fill="white"/>
    <path d="M190.336 72.6191H186.682V73.9722H190.336V72.6191Z" fill="white"/>
    <path d="M195.196 79.684H193.807L195.44 73.9756H191.845V70.6704H193.201V72.6193H196.905V73.7188L195.196 79.684Z" fill="white"/>
    <path d="M203 79.684V73.9756H200.702V78.3672C200.702 78.9861 199.974 79.6873 199.359 79.6873H198.259V78.3343H199.059C199.168 78.3343 199.349 78.1664 199.349 78.0544V73.9789H198.48V72.6226H204.359V79.6873H203.003L203 79.684Z" fill="white"/>
    <path d="M3.16036 73.8077V79.6511H1.90939V73.8077H0V72.616H5.06646V73.8077H3.16036Z" fill="white"/>
    <path d="M6.54681 79.6511V72.616H10.9878V73.8077H7.79779V75.5591H10.7738V76.7508H7.79779V78.4593H10.9878V79.6511H6.54681Z" fill="white"/>
    <path d="M12.8525 79.6511V72.616H14.1035V78.4593H17.2243V79.6511H12.8525Z" fill="white"/>
    <path d="M25.3346 79.6509L24.821 78.1695H22.1676C22.1545 78.2057 21.6672 79.6147 21.6541 79.6509H20.3175L22.7767 72.6125H24.2252L26.6712 79.6509H25.3346ZM23.5009 74.2421C23.4779 74.3047 22.5824 76.9152 22.5627 76.9778H24.4326L23.5042 74.2421H23.5009Z" fill="white"/>
    <path d="M30.1443 79.6509H28.6859L26.3716 72.6125H27.7049L29.4167 78.028C29.4167 78.028 31.145 72.6125 31.1418 72.6125H32.4652L30.1443 79.6509Z" fill="white"/>
    <path d="M35.0527 72.616H33.7984V79.6544H35.0527V72.616Z" fill="white"/>
    <path d="M40.0143 79.6509H38.5559L36.2416 72.6125H37.5749L39.2868 78.028C39.2868 78.028 41.0151 72.6125 41.0085 72.6125H42.3319L40.011 79.6509H40.0143Z" fill="white"/>
    <path d="M48.8131 76.5829V79.6511H47.5589V76.5829L45.2479 72.616H46.6338L48.191 75.2694L49.7514 72.616H51.1472L48.8131 76.5829Z" fill="white"/>
    <path d="M55.8095 79.6509L55.2959 78.1695H52.6426C52.6294 78.2057 52.1422 79.6147 52.129 79.6509H50.7924L53.2516 72.6125H54.7001L57.1461 79.6509H55.8095ZM53.9725 74.2421C53.9495 74.3047 53.0541 76.9152 53.0343 76.9778H54.9042L53.9758 74.2421H53.9725Z" fill="white"/>
    <path d="M59.5498 73.8077V75.5558H62.5192V76.7508H59.5498V79.6511H58.2955V72.616H62.7266V73.8077H59.5498Z" fill="white"/>
    <path d="M69.3161 78.65C69.168 78.8541 68.7005 79.3512 68.4569 79.4993C68.2659 79.6146 67.9729 79.7133 67.7227 79.7133H65.9352C65.6751 79.7133 65.392 79.6146 65.201 79.4993C64.9541 79.3512 64.4801 78.8541 64.3418 78.65C64.197 78.4393 64.1542 78.199 64.1542 77.9751V74.3045C64.1542 74.0773 64.197 73.837 64.3418 73.6296C64.4801 73.4288 64.9541 72.9284 65.201 72.7836C65.392 72.6683 65.6718 72.5696 65.9352 72.5696H67.7227C67.9729 72.5696 68.2626 72.6683 68.4569 72.7836C68.7005 72.9284 69.1712 73.4255 69.3161 73.6296C69.4642 73.837 69.5037 74.0806 69.5037 74.3045V77.9751C69.5037 78.199 69.4642 78.4426 69.3161 78.65ZM65.9286 73.7712C65.8265 73.8304 65.6455 73.9917 65.5039 74.1662C65.471 74.2057 65.4414 74.2584 65.415 74.2979C65.4052 74.3177 65.4051 74.3539 65.4051 74.3539V77.4912C65.4051 77.4912 65.4282 77.9916 65.4381 77.9982C65.4381 77.9982 65.4381 78.0311 65.4512 78.0443C65.5796 78.2385 65.8397 78.4426 65.9582 78.5084C65.978 78.5183 66.001 78.5183 66.0109 78.5183H67.6372C67.6372 78.5183 67.6701 78.5183 67.6898 78.5084C67.8083 78.4426 68.0717 78.2385 68.2001 78.0443C68.21 78.0212 68.2133 78.0015 68.2133 77.9982C68.2199 77.9916 68.2363 77.478 68.2462 77.4648V74.3572C68.2462 74.3572 68.2462 74.3111 68.2363 74.2979C68.2067 74.2518 68.1705 74.1893 68.131 74.1465C67.9993 73.9852 67.8248 73.8271 67.726 73.7712C67.703 73.7613 67.68 73.7613 67.6701 73.7613H65.978C65.978 73.7613 65.9319 73.7613 65.922 73.7712" fill="white"/>
    <path d="M84.1072 78.3934H83.5805C82.6423 78.3934 81.9575 77.8699 81.9575 77.0074V76.9976C81.9575 76.1054 82.6423 75.582 83.5805 75.582H84.1072V78.3934ZM80.7362 76.9976V77.0074C80.7362 77.5342 80.8646 77.9983 81.0983 78.3934H77.5297V71.9871H76.2426V79.6872H85.3944V74.2981H83.8603C81.9806 74.2981 80.7362 75.3779 80.7362 76.9976Z" fill="white"/>
    <path d="M83.9027 73.2479C84.2714 73.2479 84.6105 73.0141 84.6105 72.5927C84.6105 72.1977 84.2945 71.9409 83.9027 71.9409C83.511 71.9409 83.1851 72.1977 83.1851 72.5927C83.1851 73.0174 83.5241 73.2479 83.9027 73.2479Z" fill="white"/>
    <path d="M91.228 80.6912C90.8297 80.6912 90.5202 80.9545 90.5202 81.3364C90.5202 81.7578 90.8494 81.9915 91.228 81.9915C91.6066 81.9915 91.9259 81.7578 91.9259 81.3364C91.9259 80.9578 91.6197 80.6912 91.228 80.6912Z" fill="white"/>
    <path d="M93.0427 80.6912C92.6476 80.6912 92.3349 80.9545 92.3349 81.3364C92.3349 81.7578 92.6641 81.9915 93.0427 81.9915C93.4213 81.9915 93.7439 81.7578 93.7439 81.3364C93.7439 80.9578 93.4443 80.6912 93.0427 80.6912Z" fill="white"/>
    <path d="M90.7564 79.6873H93.7159V74.3015H92.432V78.3935H90.7564H90.5687H89.2519H89.061H88.1425V71.9905H86.8553V79.6873H89.061H89.2519H90.5687H90.7564Z" fill="white"/>
    <path d="M98.5375 76.3821H94.7944V77.5508H98.5375V76.3821Z" fill="white"/>
    <path d="M103.375 80.6978C102.974 80.6978 102.658 80.9545 102.658 81.343C102.658 81.7742 102.997 81.9981 103.375 81.9981C103.754 81.9981 104.083 81.771 104.083 81.343C104.083 80.9578 103.767 80.6978 103.375 80.6978Z" fill="white"/>
    <path d="M108.582 80.6912C108.184 80.6912 107.874 80.9545 107.874 81.3364C107.874 81.7578 108.204 81.9915 108.582 81.9915C108.961 81.9915 109.28 81.7578 109.28 81.3364C109.28 80.9578 108.974 80.6912 108.582 80.6912Z" fill="white"/>
    <path d="M110.397 80.6912C110.002 80.6912 109.689 80.9545 109.689 81.3364C109.689 81.7578 110.018 81.9915 110.397 81.9915C110.775 81.9915 111.098 81.7578 111.098 81.3364C111.098 80.9578 110.798 80.6912 110.397 80.6912Z" fill="white"/>
    <path d="M114.001 78.3934H110.084V74.2981H108.797V78.3934H106.39V74.2981H105.097V78.3934H102.723C101.521 78.3934 100.774 77.893 100.774 76.6815V75.0849H99.4803V76.8099C99.4803 78.6732 100.419 79.6872 102.446 79.6872H115.289V74.2981H114.001V78.3934Z" fill="white"/>
    <path d="M114.196 80.6978C113.795 80.6978 113.479 80.9545 113.479 81.343C113.479 81.7742 113.818 81.9981 114.196 81.9981C114.575 81.9981 114.904 81.771 114.904 81.343C114.904 80.9578 114.588 80.6978 114.196 80.6978Z" fill="white"/>
    <path d="M117.369 71.6381C117.369 71.49 117.468 71.3912 117.606 71.3912H117.935V70.7361H117.672C117.05 70.7361 116.629 71.1147 116.629 71.7204V72.4611H118.163V71.7467H117.369V71.6381Z" fill="white"/>
    <path d="M118.03 73.1196H116.742V79.6873H118.03V73.1196Z" fill="white"/>
    <path d="M132.873 72.0007C132.478 72.0007 132.166 72.2641 132.166 72.646C132.166 73.0674 132.495 73.3011 132.873 73.3011C133.252 73.3011 133.575 73.0674 133.575 72.646C133.575 72.2674 133.275 72.0007 132.873 72.0007Z" fill="white"/>
    <path d="M131.058 73.2977C131.427 73.2977 131.756 73.0639 131.756 72.6459C131.756 72.2673 131.45 72.0039 131.058 72.0039C130.667 72.0039 130.351 72.2673 130.351 72.6459C130.351 73.0672 130.68 73.2977 131.058 73.2977Z" fill="white"/>
    <path d="M131.329 78.3939H127.043V71.9875H125.749V79.579H124.926C123.8 79.579 123.053 79.1017 123.053 77.8869V74.9438H121.756V78.0449C121.756 79.8555 122.806 80.8695 124.722 80.8695H127.04V79.6844H132.613V74.2953H131.326V78.3906L131.329 78.3939Z" fill="white"/>
    <path d="M69.5092 6.9006V1.607C69.5092 1.2745 69.7462 1.03418 70.082 1.03418H79.9121C80.2446 1.03418 80.4849 1.2745 80.4849 1.607V29.6618C80.4849 29.9976 80.2479 30.2346 79.9121 30.2346H74.1378C73.802 30.2346 73.565 29.9976 73.565 29.6618V8.04624C73.565 7.71374 73.328 7.47342 72.9922 7.47342H70.082C69.7462 7.47342 69.5092 7.23639 69.5092 6.9006Z" fill="white"/>
    <path d="M83.1093 6.90036V1.60675C83.1093 1.27425 83.3463 1.03394 83.6821 1.03394H93.5121C93.8479 1.03394 94.0849 1.27425 94.0849 1.60675V25.3687C94.0849 25.7012 93.8479 25.9415 93.5121 25.9415H87.7379C87.4021 25.9415 87.165 25.7045 87.165 25.3687V8.04599C87.165 7.71349 86.928 7.47317 86.5922 7.47317H83.6821C83.3496 7.47317 83.1093 7.23615 83.1093 6.90036Z" fill="white"/>
    <path d="M104.151 19.9765H113.504C114.031 19.9765 114.172 19.5947 113.744 19.2622L104.296 11.1967C103.914 10.9103 103.582 11.0551 103.582 11.5325V19.407C103.582 19.7395 103.819 19.9798 104.155 19.9798M113.554 6.42979V1.60694C113.554 1.27115 113.791 1.03412 114.126 1.03412H126.248C126.583 1.03412 126.82 1.27115 126.82 1.60694V13.4385C126.82 13.725 126.725 13.9159 126.534 14.1529L123.051 17.6359C122.814 17.8729 122.765 18.1593 123.051 18.4457L127.107 21.7872C127.393 22.0242 127.393 22.3106 127.153 22.5509L123.621 26.6067C123.384 26.8931 123.097 26.8438 122.857 26.6561L116.319 21.3131C115.937 21.0267 115.604 21.1716 115.604 21.6456V25.3689C115.604 25.7014 115.364 25.9417 115.032 25.9417H97.4719C97.1394 25.9417 96.8991 25.7014 96.8991 25.3689V13.8698C96.8991 13.6328 96.9945 13.3925 97.1361 13.1554L100.619 8.95478C100.81 8.71776 100.81 8.38197 100.524 8.14494L96.8003 5.08992C96.5139 4.80351 96.5139 4.56649 96.7542 4.28008L100.287 0.273662C100.524 -0.0127459 100.81 -0.0127459 101.096 0.224281L119.42 15.4467C119.802 15.7792 120.134 15.5883 120.134 15.1109V7.56883C120.134 7.23634 119.897 6.99602 119.561 6.99602H114.123C113.791 6.99602 113.55 6.75899 113.55 6.4232" fill="white"/>
    <path d="M129.013 6.90036V1.60675C129.013 1.27425 129.25 1.03394 129.585 1.03394H139.415C139.751 1.03394 139.988 1.27425 139.988 1.60675V16.8753C139.988 17.2077 139.751 17.4481 139.415 17.4481H133.641C133.309 17.4481 133.068 17.2077 133.068 16.8753V8.04599C133.068 7.71349 132.831 7.47318 132.496 7.47318H129.585C129.253 7.47318 129.013 7.23615 129.013 6.90036Z" fill="white"/>
    <path d="M158.833 23.0281L154.3 26.3201C154.014 26.5572 153.727 26.5111 153.536 26.2247L142.801 11.9569C142.656 11.7199 142.564 11.4796 142.564 11.2426V1.60675C142.564 1.27096 142.801 1.03394 143.137 1.03394H158.501C158.837 1.03394 159.074 1.27096 159.074 1.60675V6.90036C159.074 7.23285 158.837 7.47317 158.501 7.47317H150.053C149.721 7.47317 149.481 7.7102 149.481 8.04599V9.14224C149.481 9.37927 149.576 9.61959 149.718 9.85661L158.925 22.261C159.162 22.5474 159.116 22.7845 158.83 23.0248" fill="white"/>
    <path d="M160.931 6.9006V1.607C160.931 1.2745 161.168 1.03418 161.504 1.03418H171.334C171.67 1.03418 171.907 1.2745 171.907 1.607V25.369C171.907 25.7015 171.67 25.9418 171.334 25.9418H165.56C165.224 25.9418 164.987 25.7048 164.987 25.369V8.04623C164.987 7.71374 164.75 7.47342 164.414 7.47342H161.504C161.172 7.47342 160.931 7.23639 160.931 6.9006Z" fill="white"/>
    <path d="M185.839 19.4498H196.814C197.15 19.4498 197.387 19.2095 197.387 18.877V8.23707C197.387 7.90129 197.15 7.66426 196.814 7.66426H194.954C194.668 7.66426 194.431 7.75973 194.24 8.00005L185.509 18.7354C185.223 19.1173 185.368 19.4498 185.845 19.4498M184.176 25.3195V21.4546C184.176 20.9312 183.794 20.8357 183.458 21.2176L179.307 26.3697C179.07 26.6561 178.784 26.6561 178.497 26.419L174.297 23.0776C174.01 22.8373 173.964 22.6003 174.201 22.3139L182.076 12.6287C182.313 12.3423 182.217 12.0558 181.98 11.8155L173.964 5.18206C173.678 4.94503 173.678 4.65862 173.918 4.37221L177.496 0.220946C177.733 -0.0654623 178.02 -0.0654623 178.26 0.174857L186.181 6.66348C186.467 6.9005 186.754 6.85442 186.991 6.56801L191.237 1.32049C191.428 1.08017 191.669 0.9847 191.952 0.9847H203.642C203.978 0.9847 204.215 1.22173 204.215 1.55752V25.3195C204.215 25.6553 203.978 25.8923 203.642 25.8923H184.746C184.413 25.8923 184.173 25.652 184.173 25.3195" fill="white"/>
    <path d="M109.063 42.6619V37.3651C109.063 37.0326 109.301 36.7922 109.636 36.7922H128.77C129.102 36.7922 129.342 37.0326 129.342 37.3651V61.127C129.342 61.4595 129.105 61.6998 128.77 61.6998H122.995C122.663 61.6998 122.423 61.4628 122.423 61.127V43.8076C122.423 43.4751 122.182 43.2348 121.85 43.2348H109.636C109.301 43.2348 109.063 42.9977 109.063 42.6619Z" fill="white"/>
    <path d="M131.635 42.6619V37.3651C131.635 37.0326 131.872 36.7922 132.207 36.7922H142.037C142.37 36.7922 142.61 37.0326 142.61 37.3651V52.6336C142.61 52.9661 142.373 53.2064 142.037 53.2064H136.263C135.931 53.2064 135.69 52.9661 135.69 52.6336V43.8043C135.69 43.4718 135.453 43.2315 135.118 43.2315H132.207C131.875 43.2315 131.635 42.9944 131.635 42.6587" fill="white"/>
    <path d="M144.995 55.2573H149.956C150.292 55.2573 150.529 55.0203 150.529 54.6845V43.6627C150.529 43.3302 150.292 43.0899 149.956 43.0899H146.377C146.045 43.0899 145.805 42.8496 145.805 42.5171V37.3651C145.805 37.0293 146.042 36.7922 146.377 36.7922H156.731C157.067 36.7922 157.304 37.0293 157.304 37.3651V54.6845C157.304 55.017 157.541 55.2573 157.876 55.2573H163.651C163.937 55.2573 164.174 55.1618 164.365 54.9709L165.652 53.6837C165.889 53.4467 165.939 53.2525 165.939 52.9693V43.666C165.939 43.3335 165.702 43.0932 165.366 43.0932H161.646C161.313 43.0932 161.073 42.8529 161.073 42.5204V37.3683C161.073 37.0326 161.31 36.7955 161.646 36.7955H172.19C172.523 36.7955 172.763 37.0326 172.763 37.3683V55.4515C172.763 55.7379 172.714 55.9289 172.477 56.1659L167.134 61.4134C166.897 61.6505 166.706 61.6998 166.419 61.6998L144.995 61.6538C144.659 61.6538 144.422 61.4167 144.422 61.0809V55.8334C144.422 55.4976 144.659 55.2606 144.995 55.2606" fill="white"/>
    <path d="M175.15 49.7234C175.15 49.3909 175.387 49.1506 175.723 49.1506H189.464C189.799 49.1506 190.036 49.3876 190.036 49.7234V61.127C190.036 61.4595 189.799 61.6998 189.464 61.6998H183.689C183.354 61.6998 183.117 61.4628 183.117 61.127V56.1626C183.117 55.8301 182.879 55.5898 182.544 55.5898H175.719C175.384 55.5898 175.146 55.3495 175.146 55.017V49.7201L175.15 49.7234ZM175.15 42.6619V37.3651C175.15 37.0326 175.387 36.7922 175.723 36.7922H203.636C203.972 36.7922 204.209 37.0326 204.209 37.3651V61.127C204.209 61.4595 203.972 61.6998 203.636 61.6998H197.862C197.529 61.6998 197.289 61.4628 197.289 61.127V43.8076C197.289 43.4751 197.052 43.2348 196.716 43.2348H175.723C175.387 43.2348 175.15 42.9977 175.15 42.6619Z" fill="white"/>
    <path d="M66.174 39.3534C66.8456 39.3534 67.4612 38.9913 67.4612 38.2111C67.4612 37.5198 66.8983 37.0852 66.174 37.0852C65.4498 37.0852 64.8835 37.5198 64.8835 38.2111C64.8835 38.9913 65.5024 39.3534 66.174 39.3534ZM53.8289 43.001C53.8289 45.6511 55.116 47.1753 57.967 47.1753H92.856C92.9647 47.1753 93.0569 47.2115 93.1293 47.3037C93.8568 48.0839 94.963 48.5218 96.3259 48.5218H97.5242C99.9767 48.5218 101.61 47.0502 101.61 44.8709V44.8544C101.61 42.55 99.9767 41.0422 97.5242 41.0422H96.3259C94.0379 41.0422 92.4412 42.3689 92.2404 44.4199C92.224 44.5647 92.1318 44.6372 92.0034 44.6372H85.2909C85.1625 44.6372 85.0737 44.545 85.0737 44.4199V40.4431C85.0737 40.3147 84.9815 40.2258 84.8564 40.2258H82.7495C82.6211 40.2258 82.5322 40.318 82.5322 40.4431V44.4199C82.5322 44.5483 82.44 44.6372 82.3149 44.6372H79.4838C79.3389 44.6372 79.2665 44.545 79.2829 44.4001C79.2994 44.2191 79.2994 44.0545 79.2994 43.9096C79.2994 41.3517 77.4493 39.8242 74.4897 39.8242C73.4725 39.8242 72.0931 40.0612 70.8421 40.4431C70.7138 40.4958 70.6611 40.5715 70.6973 40.7163L71.2602 42.7146C71.2964 42.843 71.3886 42.9154 71.5335 42.8594C72.6594 42.5138 73.512 42.3525 74.2395 42.3525C75.9284 42.3525 76.9258 42.9154 76.9258 43.8964C76.9258 44.0775 76.8896 44.2586 76.8534 44.4594C76.8172 44.5878 76.725 44.6404 76.5999 44.6404H69.1764C69.048 44.6404 68.9591 44.5483 68.9591 44.4232V40.4464C68.9591 40.318 68.8669 40.2291 68.7418 40.2291H64.2218C61.7693 40.2291 60.1562 41.6085 60.1562 43.7154V43.7318C60.1562 43.9689 60.1726 44.1861 60.2121 44.4034C60.2483 44.5483 60.1759 44.6404 60.0311 44.6404H58.5233C57.1439 44.6404 56.3637 44.0051 56.3637 42.7508V41.3714C56.3637 41.2431 56.2716 41.1542 56.1465 41.1542H54.0593C53.9309 41.1542 53.842 41.2431 53.842 41.3714V43.0043L53.8289 43.001ZM62.5231 43.7285V43.7121C62.5231 43.1294 62.9774 42.7508 63.6852 42.7508H66.1905C66.3189 42.7508 66.4078 42.843 66.4078 42.9681V44.4199C66.4078 44.5483 66.3156 44.6372 66.1905 44.6372H63.6852C62.9774 44.6372 62.5231 44.275 62.5231 43.7285ZM80.9125 38.2473C80.9125 39.0275 81.5117 39.3896 82.1832 39.3896C82.8548 39.3896 83.4342 39.0275 83.4342 38.2473C83.4342 37.556 82.891 37.1214 82.1832 37.1214C81.4754 37.1214 80.9125 37.5593 80.9125 38.2473ZM84.1815 38.2473C84.1815 39.0275 84.7807 39.3896 85.4522 39.3896C86.1238 39.3896 86.723 39.0275 86.723 38.2473C86.723 37.556 86.1798 37.1214 85.4522 37.1214C84.7247 37.1214 84.1815 37.5593 84.1815 38.2473ZM94.7621 44.8182V44.7985C94.7621 44.0545 95.3975 43.5639 96.3226 43.5639H97.5209C98.4459 43.5639 99.0648 44.0545 99.0648 44.7985C99.0648 45.5425 98.4459 45.9803 97.5209 45.9803H96.3226C95.3975 45.9803 94.7621 45.526 94.7621 44.8182Z" fill="white"/>
    <path d="M45.0536 44.8052C45.0536 45.513 44.4347 45.9837 43.5096 45.9837H42.3113C41.3863 45.9837 40.7509 45.513 40.7509 44.8052C40.7509 44.0414 41.3863 43.5707 42.3113 43.5707H43.5096C44.4347 43.5707 45.0536 44.0414 45.0536 44.7887V44.8085V44.8052ZM43.5096 41.0457H42.3113C40.0234 41.0457 38.4267 42.3724 38.2259 44.4233C38.2062 44.5682 38.1173 44.6406 37.9889 44.6406H33.3965C33.2681 44.6406 33.1792 44.5484 33.1792 44.4233V44.3311C33.1792 41.6086 31.9611 40.2292 29.1827 40.2292H26.6774C26.549 40.2292 26.4601 40.3214 26.4601 40.4465V42.5337C26.4601 42.6621 26.5523 42.751 26.6774 42.751H29.581C30.4172 42.751 30.7793 43.2217 30.7793 44.0414V44.4233C30.7793 44.5517 30.6871 44.6406 30.562 44.6406H24.587C24.4619 44.6406 24.3697 44.7328 24.3697 44.8579V46.9648C24.3697 47.0932 24.4619 47.182 24.587 47.182H38.8382C38.9469 47.182 39.039 47.2183 39.1115 47.2907C39.839 48.0709 40.9451 48.5087 42.308 48.5087H43.5063C45.9556 48.5087 47.5918 47.0372 47.5918 44.8776V44.8579C47.5918 42.5534 45.9589 41.0457 43.5063 41.0457" fill="white"/>
    <path d="M20.6345 49.1439C20.6345 49.9242 21.2336 50.2863 21.9052 50.2863C22.5768 50.2863 23.1759 49.9242 23.1759 49.1439C23.1759 48.4724 22.6327 48.0181 21.9052 48.0181C21.1776 48.0181 20.6345 48.4724 20.6345 49.1439Z" fill="white"/>
    <path d="M17.3705 49.1439C17.3705 49.9242 17.9697 50.2863 18.6413 50.2863C19.3129 50.2863 19.8955 49.9242 19.8955 49.1439C19.8955 48.4724 19.3688 48.0181 18.6413 48.0181C17.9137 48.0181 17.3705 48.4724 17.3705 49.1439Z" fill="white"/>
    <path d="M11.7014 38.8234C11.7014 39.6234 12.3203 39.9855 13.0083 39.9855C13.6963 39.9855 14.279 39.6234 14.279 38.8234C14.279 38.1518 13.7161 37.7173 13.0083 37.7173C12.3005 37.7173 11.7014 38.1518 11.7014 38.8234Z" fill="white"/>
    <path d="M6.69043 37.5562C6.69043 38.3199 7.28958 38.682 7.96116 38.682C8.63274 38.682 9.23189 38.3199 9.23189 37.5562C9.23189 36.8484 8.6887 36.4138 7.96116 36.4138C7.23362 36.4138 6.69043 36.8484 6.69043 37.5562Z" fill="white"/>
    <path d="M3.42377 37.5562C3.42377 38.3199 4.02292 38.682 4.6945 38.682C5.36607 38.682 5.94877 38.3199 5.94877 37.5562C5.94877 36.8484 5.40558 36.4138 4.6945 36.4138C3.98341 36.4138 3.42377 36.8484 3.42377 37.5562Z" fill="white"/>
    <path d="M6.246 44.4233C6.246 44.5517 6.15382 44.6406 6.02872 44.6406H3.52348C2.83215 44.6406 2.38114 44.2785 2.38114 43.7156C2.38114 43.1164 2.81569 42.7345 3.52348 42.7345H6.02872C6.15711 42.7345 6.246 42.8267 6.246 42.9518V44.4233ZM22.5252 40.2293H20.438C20.3096 40.2293 20.2207 40.3215 20.2207 40.4466V44.4233C20.2207 44.5517 20.1285 44.6406 20.0035 44.6406H13.8375C13.7091 44.6406 13.6202 44.5484 13.6202 44.4233V40.4466C13.6202 40.3182 13.528 40.2293 13.4029 40.2293H11.296C11.1709 40.2293 11.0787 40.3215 11.0787 40.4466V44.4233C11.0787 44.5517 10.9865 44.6406 10.8614 44.6406H9.01131C8.88622 44.6406 8.79404 44.5484 8.79404 44.4233V39.8474C8.79404 39.719 8.70186 39.6301 8.57676 39.6301H6.46985C6.34476 39.6301 6.25258 39.7223 6.25258 39.8474V40.012C6.25258 40.1404 6.1604 40.2293 6.03531 40.2293H4.07654C1.60751 40.2293 0.0108643 41.6086 0.0108643 43.7156C0.0108643 45.9871 1.62726 47.1821 4.69544 47.1821H22.535C22.6634 47.1821 22.7523 47.0932 22.7523 46.9648V40.4466C22.7523 40.3182 22.6601 40.2293 22.535 40.2293" fill="white"/>
    <path d="M4.79519 52.4492C7.12267 52.4492 8.87733 53.6311 9.37114 55.6952C9.40406 55.8269 9.33822 55.9092 9.20653 55.9092H7.15559C7.05683 55.9092 6.97453 55.8598 6.94161 55.7446C6.59594 55.0401 5.80914 54.5956 4.80836 54.5956C3.38291 54.5956 2.3492 55.6129 2.3492 56.9725C2.3492 58.3321 3.36645 59.3658 4.80836 59.3658C5.80914 59.3658 6.59594 58.9247 6.94161 58.2004C6.97453 58.1017 7.05683 58.0523 7.15559 58.0523H9.20653C9.33822 58.0523 9.40406 58.1346 9.37114 58.2663C8.88062 60.3337 7.12267 61.5122 4.79519 61.5122C2.00683 61.5188 0.0217285 59.5995 0.0217285 56.9758C0.0217285 54.352 2.00683 52.4492 4.79519 52.4492Z" fill="white"/>
    <path d="M10.2549 61.1073V59.4679C10.2549 59.3526 10.3372 59.2703 10.4525 59.2703H12.0261C12.1413 59.2703 12.2236 59.188 12.2236 59.0728V54.8755C12.2236 54.7602 12.1413 54.6779 12.0261 54.6779H10.4525C10.3372 54.6779 10.2549 54.5956 10.2549 54.4804V52.8574C10.2549 52.7422 10.3372 52.6599 10.4525 52.6599H16.2893C16.4045 52.6599 16.4868 52.7422 16.4868 52.8574V54.4804C16.4868 54.5956 16.4045 54.6779 16.2893 54.6779H14.7321C14.6169 54.6779 14.5346 54.7602 14.5346 54.8755V59.0728C14.5346 59.188 14.6169 59.2703 14.7321 59.2703H16.2893C16.4045 59.2703 16.4868 59.3526 16.4868 59.4679V61.1073C16.4868 61.2225 16.4045 61.3048 16.2893 61.3048H10.4525C10.3372 61.3048 10.2549 61.2225 10.2549 61.1073Z" fill="white"/>
    <path d="M22.7843 61.3048H20.865C20.7498 61.3048 20.6675 61.2225 20.6675 61.1073V55.0236C20.6675 54.9084 20.5852 54.8261 20.47 54.8261H17.4841C17.3689 54.8261 17.2866 54.7438 17.2866 54.6286V52.8574C17.2866 52.7422 17.3689 52.6599 17.4841 52.6599H26.1586C26.2738 52.6599 26.3561 52.7422 26.3561 52.8574V54.6286C26.3561 54.7438 26.2738 54.8261 26.1586 54.8261H23.1727C23.0575 54.8261 22.9752 54.9084 22.9752 55.0236V61.1073C22.9752 61.2225 22.8929 61.3048 22.7777 61.3048" fill="white"/>
    <path d="M26.8176 52.6633H29.0957C29.1945 52.6633 29.2768 52.6962 29.3261 52.795L31.2454 55.748C31.3277 55.8961 31.4265 55.8961 31.5088 55.748L33.4116 52.795C33.461 52.6962 33.5597 52.6633 33.6585 52.6633H35.9366C36.0847 52.6633 36.1506 52.7621 36.0683 52.8938L32.6083 58.0261C32.5589 58.1084 32.5425 58.1742 32.5425 58.273V61.1107C32.5425 61.2259 32.4602 61.3082 32.345 61.3082H30.4092C30.294 61.3082 30.2117 61.2259 30.2117 61.1107V58.273C30.2117 58.1742 30.1952 58.1084 30.1459 58.0261L26.6859 52.8938C26.5872 52.7621 26.653 52.6633 26.8176 52.6633Z" fill="white"/>
    <path d="M44.8247 61.1402L43.1195 54.9578C43.0865 54.859 43.0042 54.7932 42.889 54.7932H42.4808C42.3656 54.7932 42.2833 54.8755 42.2833 54.9907V61.1073C42.2833 61.2225 42.201 61.3048 42.0858 61.3048H40.15C40.0348 61.3048 39.9525 61.2225 39.9525 61.1073V52.8574C39.9525 52.7422 40.0348 52.6599 40.15 52.6599H44.512C44.6272 52.6599 44.6931 52.7258 44.726 52.8245L45.8749 57.3511C45.9243 57.5486 46.0724 57.5486 46.1218 57.3511L47.2543 52.8245C47.2872 52.7093 47.3695 52.6599 47.4847 52.6599H51.8302C51.9454 52.6599 52.0277 52.7422 52.0277 52.8574V61.1073C52.0277 61.2225 51.9454 61.3048 51.8302 61.3048H49.911C49.7957 61.3048 49.7134 61.2225 49.7134 61.1073V54.9907C49.7134 54.8755 49.6311 54.7932 49.5159 54.7932H49.1044C48.9892 54.7932 48.9069 54.859 48.874 54.9578L47.1522 61.1402C47.1193 61.239 47.037 61.3048 46.9218 61.3048H45.0519C44.9367 61.3048 44.8544 61.239 44.8214 61.1402" fill="white"/>
    <path d="M61.7346 52.8574V57.3346C61.7346 59.7115 59.8647 61.532 57.3891 61.532C54.9134 61.532 53.0271 59.7115 53.0271 57.3346V52.8574C53.0271 52.7422 53.1094 52.6599 53.2246 52.6599H55.1603C55.2756 52.6599 55.3579 52.7422 55.3579 52.8574V57.3346C55.3579 58.5 56.227 59.3856 57.3923 59.3856C58.5577 59.3856 59.4268 58.5 59.4268 57.3346V52.8574C59.4268 52.7422 59.5091 52.6599 59.6244 52.6599H61.5436C61.6588 52.6599 61.7411 52.7422 61.7411 52.8574" fill="white"/>
    <path d="M62.4866 58.451H64.4553C64.5705 58.451 64.6363 58.5168 64.6528 58.632C64.768 59.1555 65.3408 59.5341 66.0783 59.5341C66.7663 59.5341 67.293 59.2378 67.293 58.7967C67.293 58.5168 67.112 58.2897 66.7367 58.1745L64.4882 57.5523C63.1747 57.1737 62.4537 56.3046 62.4537 55.1425C62.4537 53.4537 63.945 52.4529 65.8972 52.4529C67.9811 52.4529 69.3571 53.5524 69.4559 55.1754C69.4559 55.3071 69.3736 55.3729 69.2584 55.3729H67.2733C67.1581 55.3729 67.0922 55.3071 67.0757 55.1919C66.977 54.7145 66.5029 54.438 65.7951 54.438C65.2059 54.438 64.7614 54.6849 64.7614 55.0437C64.7614 55.34 64.9754 55.5211 65.2684 55.6165L67.5794 56.2552C68.6954 56.5679 69.6139 57.4041 69.6139 58.6979C69.6139 60.4032 68.0568 61.5192 66.0223 61.5192C63.9878 61.5192 62.3978 60.3702 62.2825 58.6485C62.2825 58.5168 62.3648 58.451 62.4801 58.451" fill="white"/>
    <path d="M78.8567 59.4185V61.1073C78.8567 61.2225 78.7744 61.3048 78.6591 61.3048H70.541C70.4257 61.3048 70.3434 61.2225 70.3434 61.1073V52.8574C70.3434 52.7422 70.4257 52.6599 70.541 52.6599H78.6591C78.7744 52.6599 78.8567 52.7422 78.8567 52.8574V54.5463C78.8567 54.6615 78.7744 54.7438 78.6591 54.7438H72.8684C72.7532 54.7438 72.6709 54.8261 72.6709 54.9413V55.8762C72.6709 55.9915 72.7532 56.0738 72.8684 56.0738H76.0321C76.1473 56.0738 76.2296 56.1561 76.2296 56.2713V57.6803C76.2296 57.7955 76.1473 57.8778 76.0321 57.8778H72.8684C72.7532 57.8778 72.6709 57.9601 72.6709 58.0753V59.0267C72.6709 59.1419 72.7532 59.2242 72.8684 59.2242H78.6591C78.7744 59.2242 78.8567 59.3065 78.8567 59.4218" fill="white"/>
    <path d="M88.5311 52.8574V57.3346C88.5311 59.7115 86.6612 61.532 84.1856 61.532C81.71 61.532 79.8237 59.7115 79.8237 57.3346V52.8574C79.8237 52.7422 79.906 52.6599 80.0212 52.6599H81.9569C82.0721 52.6599 82.1544 52.7422 82.1544 52.8574V57.3346C82.1544 58.5 83.0235 59.3856 84.1889 59.3856C85.3543 59.3856 86.2234 58.5 86.2234 57.3346V52.8574C86.2234 52.7422 86.3057 52.6599 86.4209 52.6599H88.3402C88.4554 52.6599 88.5377 52.7422 88.5377 52.8574" fill="white"/>
    <path d="M94.401 61.1402L92.6957 54.9578C92.6628 54.859 92.5805 54.7932 92.4652 54.7932H92.057C91.9418 54.7932 91.8595 54.8755 91.8595 54.9907V61.1073C91.8595 61.2225 91.7772 61.3048 91.662 61.3048H89.7263C89.611 61.3048 89.5287 61.2225 89.5287 61.1073V52.8574C89.5287 52.7422 89.611 52.6599 89.7263 52.6599H94.0882C94.2034 52.6599 94.2693 52.7258 94.3022 52.8245L95.4511 57.3511C95.5005 57.5486 95.6487 57.5486 95.698 57.3511L96.8305 52.8245C96.8634 52.7093 96.9457 52.6599 97.0609 52.6599H101.406C101.522 52.6599 101.604 52.7422 101.604 52.8574V61.1073C101.604 61.2225 101.522 61.3048 101.406 61.3048H99.4872C99.372 61.3048 99.2897 61.2225 99.2897 61.1073V54.9907C99.2897 54.8755 99.2074 54.7932 99.0921 54.7932H98.6806C98.5654 54.7932 98.4831 54.859 98.4502 54.9578L96.7284 61.1402C96.6955 61.239 96.6132 61.3048 96.498 61.3048H94.6281C94.5129 61.3048 94.4306 61.239 94.3977 61.1402" fill="white"/>
    <path d="M1.95746 21.5369H0.189636V22.3138H1.81591C2.34922 22.3138 2.606 22.6167 2.606 23.2389V25.9976H3.46522V23.2224C3.46522 22.7911 3.40267 22.4817 3.26441 22.2216C3.08664 21.9089 2.71463 21.5369 1.95746 21.5369Z" fill="white"/>
    <path d="M7.14243 21.4282C6.48402 21.4282 5.95071 21.7015 5.58859 22.215L5.20671 21.5369H4.25531L5.10466 23.1236C4.94335 23.7755 4.73266 25.4873 4.70961 25.9943V26.0634H5.55567L5.64455 25.1515C5.69064 24.6808 5.77953 24.0059 5.875 23.5516C6.08898 22.6199 6.47086 22.1887 7.08318 22.1887C7.78109 22.1887 8.18272 22.7648 8.18272 23.7722C8.18272 24.7795 7.77121 25.3392 6.95808 25.3392C6.89224 25.3392 6.66838 25.3359 6.51036 25.2898L6.42477 25.2667V26.0503L6.47415 26.0634C6.63875 26.1062 6.7836 26.1227 6.97454 26.1227C8.24527 26.1227 9.03536 25.1877 9.03536 23.68C9.03536 22.271 8.32757 21.4282 7.14243 21.4282Z" fill="white"/>
    <path d="M9.77008 22.3135H10.2869V25.9941H11.1659V21.5366H9.77008V22.3135Z" fill="white"/>
    <path d="M15.3969 21.5365H12.197V22.3134H13.1978V24.6442C13.1978 25.1709 12.9871 25.2763 12.648 25.2763C12.49 25.2763 12.388 25.2532 12.2793 25.2269L12.197 25.2071V25.9478L12.2431 25.9643C12.4703 26.0433 12.6974 26.0433 12.7731 26.0433C13.6356 26.0433 14.057 25.6055 14.057 24.71V22.3101H15.2652C15.7985 22.3101 16.0487 22.6031 16.0487 23.2352V25.9939H16.9178V23.2089C16.9178 22.7776 16.8553 22.4648 16.717 22.2179C16.48 21.7834 15.9993 21.5332 15.4002 21.5332" fill="white"/>
    <path d="M22.9811 21.5367H19.7812V22.3137H20.782V24.6444C20.782 25.1712 20.5713 25.2765 20.2322 25.2765C20.0742 25.2765 19.9721 25.2535 19.8635 25.2271L19.7812 25.2074V25.9481L19.8273 25.9645C20.0544 26.0435 20.2816 26.0435 20.3573 26.0435C21.2198 26.0435 21.6412 25.6057 21.6412 24.7103V22.3104H22.8494C23.3827 22.3104 23.6329 22.6034 23.6329 23.2354V25.9942H24.502V23.2091C24.502 22.7778 24.4394 22.4651 24.3012 22.2182C24.0641 21.7836 23.5835 21.5334 22.9843 21.5334" fill="white"/>
    <path d="M28.0639 21.5361H25.6969V25.9969H26.566V22.3131H27.9223C28.4556 22.3131 28.7124 22.6159 28.7124 23.2381V25.9969H29.5815V23.2217C29.5815 22.7937 29.5157 22.4842 29.3642 22.2209C29.1206 21.7797 28.6564 21.5361 28.0639 21.5361Z" fill="white"/>
    <path d="M32.5822 21.4114C31.3312 21.4114 30.4885 22.1126 30.4885 23.1529C30.4885 23.571 30.6234 23.9133 30.8835 24.1734C31.2226 24.5059 31.6999 24.6145 32.016 24.6145H32.0818V23.8244L32.0193 23.8179C31.6012 23.7849 31.3411 23.5084 31.3411 23.0936C31.3411 22.5438 31.7954 22.2015 32.5229 22.2015C33.392 22.2015 33.8134 22.6821 33.8134 23.6664C33.8134 24.7956 33.2834 25.2137 31.8645 25.2137H30.7815V25.9906H32.0489C33.7377 25.9906 34.6661 25.138 34.6661 23.5907C34.6661 22.2015 33.9056 21.4048 32.5822 21.4048" fill="white"/>
    <path d="M39.714 23.3698C39.714 24.5747 39.0457 25.3516 38.0153 25.3516C37.4392 25.3516 36.975 25.1047 36.6952 24.6504C37.9363 24.3805 38.4663 23.7648 38.4663 22.6126V21.5361H37.6466V22.5534C37.6466 23.4488 37.3174 23.8439 36.4417 23.9854C36.412 23.834 36.3989 23.6628 36.3989 23.4719V21.5361H35.5726V23.5443C35.5726 25.1047 36.524 26.1121 37.9988 26.1121C39.4736 26.1121 40.5403 25.029 40.5403 23.4192V21.5361H39.714V23.3698Z" fill="white"/>
    <path d="M44.1343 21.4277C43.4759 21.4277 42.9426 21.701 42.5805 22.2145L42.1986 21.5364H41.2472L42.0965 23.1231C41.9352 23.775 41.7245 25.4901 41.7015 25.9938V26.0629H42.5476L42.6364 25.151C42.6825 24.6836 42.7714 24.0054 42.8669 23.5511C43.0809 22.6195 43.466 22.1882 44.0751 22.1882C44.773 22.1882 45.1746 22.7643 45.1746 23.7717C45.1746 24.779 44.7631 25.3387 43.95 25.3387C43.8841 25.3387 43.6603 25.3354 43.5022 25.2893L43.4167 25.2663V26.0498L43.466 26.0629C43.6273 26.1057 43.7755 26.1222 43.9664 26.1222C45.2372 26.1222 46.0272 25.1873 46.0272 23.6795C46.0272 22.2705 45.3195 21.4277 44.1343 21.4277Z" fill="white"/>
    <path d="M52.9078 23.3698C52.9078 24.5747 52.2395 25.3516 51.2091 25.3516C50.633 25.3516 50.1688 25.1047 49.889 24.6504C51.1301 24.3805 51.6601 23.7648 51.6601 22.6126V21.5361H50.8404V22.5534C50.8404 23.4488 50.5112 23.8439 49.6355 23.9854C49.6059 23.834 49.5927 23.6595 49.5927 23.4719V21.5361H48.7664V23.5443C48.7664 25.1047 49.7178 26.1121 51.1927 26.1121C52.6675 26.1121 53.7341 25.029 53.7341 23.4192V21.5361H52.9078V23.3698Z" fill="white"/>
    <path d="M55.0179 21.5366L54.2081 23.4526H54.7447L56.1701 21.5366H55.0179Z" fill="white"/>
    <path d="M55.7086 23.4526H56.2452L57.6707 21.5366H56.5152L55.7086 23.4526Z" fill="white"/>
    <path d="M61.1999 21.5361V21.9279C61.1999 22.1781 61.19 23.0636 61.0682 23.8406C60.953 24.5549 60.7884 24.894 60.4724 25.052L59.0831 21.5328H58.1383L59.6066 25.21C59.4387 25.2133 59.2477 25.2133 59.0304 25.2133H58.2634V25.9903H59.2049C60.7061 25.9903 61.5818 25.6973 61.9044 24.1533C61.9801 23.7945 62.0295 23.327 62.0558 22.7608C62.0723 22.3822 62.0822 21.9674 62.0822 21.5987V21.5295H61.2065L61.1999 21.5361Z" fill="white"/>
  </g>
  <defs>
    <clipPath id="clip0_1_254">
      <rect width="204.354" height="81.9982" fill="white"/>
    </clipPath>
  </defs>
</svg>